<svg width="331" height="134" viewBox="0 0 331 134" fill="none" xmlns="http://www.w3.org/2000/svg">
<rect width="331" height="134" fill="white"/>
<path d="M28.1621 74.7374L28.4853 39.6667L32.0409 41.7092L71.9596 19.7879V16.3939C73.374 13.3674 74.5893 13.3994 76.6465 13H78.7475L77.2929 15.101C80.1636 16.3439 81.2807 16.0218 82.7878 13.6465V19.1414H80.3636L75.0303 22.3737L73.5758 21.5657L52.0811 33.202L60.6466 39.0202V75.2223L44.3236 85.2425L28.1621 74.7374Z" fill="url(#paint0_linear_968_718)"/>
<path d="M43.6771 48.394L60.6466 39.0202M43.6771 48.394L43.7877 54.697L43.8586 58.7374L43.9153 61.9697L43.9805 65.6869L44.3236 85.2425M43.6771 48.394L32.0409 41.7092M60.6466 39.0202V75.2223L44.3236 85.2425M60.6466 39.0202L52.0811 33.202L73.5758 21.5657L75.0303 22.3737L80.3636 19.1414H82.7878V13.6465C81.2807 16.0218 80.1636 16.3439 77.2929 15.101L78.7475 13H76.6465C74.5893 13.3994 73.374 13.3674 71.9596 16.3939V19.7879L32.0409 41.7092M44.3236 85.2425L28.1621 74.7374L28.4853 39.6667L32.0409 41.7092" stroke="#0CAF9C" stroke-width="0.782922"/>
<path d="M44.1613 93.0001L12 72.9597V35.1415L46.1007 14.7778L56.9288 21.7273L55.1511 23.5051L46.1007 18.1718L15.0707 36.1112V71.99L44.1613 89.6061L72.4438 71.99V40.9597L76.161 42.4142V35.1415L63.555 27.3839L65.4944 25.7677L78.7468 33.8485V46.9395L75.0297 45.1617V73.9294L44.1613 93.0001Z" fill="url(#paint1_linear_968_718)"/>
<path d="M19.7578 41.9293L45.2929 28.1919L46.9091 30.4545L28.1618 40.4747V75.303L44.3232 85.404L60.6463 75.588V39.3434L51.9191 33.6868L57.2524 31.7475L65.1715 35.9495L68.727 34.4949L73.2522 37.7273H74.7067V40.4747L68.2422 37.7273V71.0202L60.6463 75.588L44.3232 85.404L28.1618 75.303L19.7578 70.0505V41.9293Z" fill="#04113B"/>
<path d="M60.6463 75.588L44.3232 85.404L28.1618 75.303M60.6463 75.588L68.2422 71.0202V37.7273L74.7068 40.4747V37.7273H73.2522L68.727 34.4949L65.1715 35.9495L57.2524 31.7475L51.9191 33.6868L60.6463 39.3434V75.588ZM28.1618 75.303L19.7578 70.0505V41.9293L45.2929 28.1919L46.9091 30.4545L28.1618 40.4747V75.303Z" stroke="#0CAF9C" stroke-width="0.782922"/>
<path d="M41.7383 25.9295V23.8285L47.2332 20.4346V23.0204L41.7383 25.9295Z" fill="#04113B" stroke="#04113B" stroke-width="0.782922"/>
<path d="M53.3742 61.485L43.839 66.4951L34.627 61.1618V56.3133L43.839 61.485V59.384L34.627 54.5355V50.1719L43.839 55.3436L53.3742 50.1719V54.5355L43.839 59.384V61.485L53.3742 56.3133V61.485Z" fill="white"/>
<path d="M43.839 55.3436V59.384M43.839 55.3436L53.3742 50.1719V54.5355L43.839 59.384M43.839 55.3436L34.627 50.1719V54.5355L43.839 59.384M43.839 66.4951L53.3742 61.485V56.3133L43.839 61.485M43.839 66.4951V61.485M43.839 66.4951L34.627 61.1618V56.3133L43.839 61.485M43.839 61.485V59.384" stroke="#0CAF9C" stroke-width="0.782922"/>
<path d="M47.2324 26.414C47.2863 25.983 47.4264 25.0241 47.5557 24.6362L50.3031 26.414L48.3637 27.3837L47.2324 26.414Z" fill="#67F1D1" stroke="#67F1D1" stroke-width="0.782922"/>
<path d="M43.6753 48.5556L32.0391 41.7677L71.7962 19.9495C71.509 14.3746 73.2312 13.0001 78.9073 13L77.1295 15.4242C80.6156 16.3823 81.2799 15.3139 82.786 13.8081V19.303H80.3618L75.1901 22.5354L73.574 21.7273L51.5944 33.6869L60.4832 39.3434L43.6753 48.5556Z" fill="#40BDDB" stroke="#44BFDE" stroke-width="0.782922"/>
<path d="M78.3016 16.2342C76.4303 16.8737 75.5046 17.374 74.2613 18.6584C73.8187 19.9147 74.0705 20.2527 75.3926 20.2746C77.1943 19.8957 78.0589 19.3473 79.4329 18.0119C80.1997 16.5245 79.8517 16.2053 78.3016 16.2342Z" fill="white" stroke="white" stroke-width="0.782922"/>
<path d="M96.36 80V45.44H116.208V48.968H99.888V60.968H113.328V64.472H99.888V80H96.36ZM130.668 80.72C128.092 80.72 125.892 80.136 124.068 78.968C122.244 77.8 120.844 76.184 119.868 74.12C118.892 72.056 118.404 69.688 118.404 67.016C118.404 64.296 118.9 61.912 119.892 59.864C120.884 57.816 122.292 56.224 124.116 55.088C125.956 53.936 128.14 53.36 130.668 53.36C133.26 53.36 135.468 53.944 137.292 55.112C139.132 56.264 140.532 57.872 141.492 59.936C142.468 61.984 142.956 64.344 142.956 67.016C142.956 69.736 142.468 72.128 141.492 74.192C140.516 76.24 139.108 77.84 137.268 78.992C135.428 80.144 133.228 80.72 130.668 80.72ZM130.668 77.336C133.548 77.336 135.692 76.384 137.1 74.48C138.508 72.56 139.212 70.072 139.212 67.016C139.212 63.88 138.5 61.384 137.076 59.528C135.668 57.672 133.532 56.744 130.668 56.744C128.732 56.744 127.132 57.184 125.868 58.064C124.62 58.928 123.684 60.136 123.06 61.688C122.452 63.224 122.148 65 122.148 67.016C122.148 70.136 122.868 72.64 124.308 74.528C125.748 76.4 127.868 77.336 130.668 77.336ZM148.251 80V54.08H151.419V60.32L150.795 59.504C151.083 58.736 151.459 58.032 151.923 57.392C152.387 56.736 152.891 56.2 153.435 55.784C154.107 55.192 154.891 54.744 155.787 54.44C156.683 54.12 157.587 53.936 158.499 53.888C159.411 53.824 160.243 53.888 160.995 54.08V57.392C160.051 57.152 159.019 57.096 157.899 57.224C156.779 57.352 155.747 57.8 154.803 58.568C153.939 59.24 153.291 60.048 152.859 60.992C152.427 61.92 152.139 62.912 151.995 63.968C151.851 65.008 151.779 66.04 151.779 67.064V80H148.251ZM174.906 92.24C173.578 92.24 172.266 92.04 170.97 91.64C169.69 91.256 168.506 90.64 167.418 89.792C166.33 88.96 165.418 87.872 164.682 86.528L167.874 84.752C168.594 86.192 169.602 87.224 170.898 87.848C172.21 88.488 173.546 88.808 174.906 88.808C176.778 88.808 178.29 88.456 179.442 87.752C180.61 87.064 181.458 86.04 181.986 84.68C182.514 83.32 182.77 81.624 182.754 79.592V72.68H183.162V54.08H186.306V79.64C186.306 80.376 186.282 81.08 186.234 81.752C186.202 82.44 186.13 83.112 186.018 83.768C185.714 85.704 185.082 87.296 184.122 88.544C183.178 89.792 181.93 90.72 180.378 91.328C178.842 91.936 177.018 92.24 174.906 92.24ZM174.666 80.72C172.25 80.72 170.186 80.12 168.474 78.92C166.762 77.704 165.45 76.064 164.538 74C163.626 71.936 163.17 69.608 163.17 67.016C163.17 64.44 163.618 62.12 164.514 60.056C165.426 57.992 166.73 56.36 168.426 55.16C170.122 53.96 172.154 53.36 174.522 53.36C176.954 53.36 179.002 53.952 180.666 55.136C182.33 56.32 183.586 57.944 184.434 60.008C185.298 62.056 185.73 64.392 185.73 67.016C185.73 69.592 185.306 71.92 184.458 74C183.61 76.064 182.362 77.704 180.714 78.92C179.066 80.12 177.05 80.72 174.666 80.72ZM175.026 77.432C176.866 77.432 178.386 76.984 179.586 76.088C180.786 75.192 181.682 73.96 182.274 72.392C182.866 70.808 183.162 69.016 183.162 67.016C183.162 64.984 182.866 63.192 182.274 61.64C181.682 60.072 180.786 58.848 179.586 57.968C178.402 57.088 176.906 56.648 175.098 56.648C173.242 56.648 171.706 57.104 170.49 58.016C169.274 58.928 168.37 60.168 167.778 61.736C167.202 63.304 166.914 65.064 166.914 67.016C166.914 68.984 167.21 70.76 167.802 72.344C168.41 73.912 169.314 75.152 170.514 76.064C171.714 76.976 173.218 77.432 175.026 77.432ZM203.984 80.72C201.456 80.72 199.264 80.16 197.408 79.04C195.568 77.92 194.136 76.344 193.112 74.312C192.088 72.28 191.576 69.896 191.576 67.16C191.576 64.328 192.08 61.88 193.088 59.816C194.096 57.752 195.512 56.16 197.336 55.04C199.176 53.92 201.344 53.36 203.84 53.36C206.4 53.36 208.584 53.952 210.392 55.136C212.2 56.304 213.568 57.984 214.496 60.176C215.424 62.368 215.848 64.984 215.768 68.024H212.168V66.776C212.104 63.416 211.376 60.88 209.984 59.168C208.608 57.456 206.592 56.6 203.936 56.6C201.152 56.6 199.016 57.504 197.528 59.312C196.056 61.12 195.32 63.696 195.32 67.04C195.32 70.304 196.056 72.84 197.528 74.648C199.016 76.44 201.12 77.336 203.84 77.336C205.696 77.336 207.312 76.912 208.688 76.064C210.08 75.2 211.176 73.96 211.976 72.344L215.264 73.616C214.24 75.872 212.728 77.624 210.728 78.872C208.744 80.104 206.496 80.72 203.984 80.72ZM194.072 68.024V65.072H213.872V68.024H194.072ZM232.734 80.72C230.35 80.72 228.334 80.12 226.686 78.92C225.038 77.704 223.79 76.064 222.942 74C222.094 71.92 221.67 69.592 221.67 67.016C221.67 64.392 222.094 62.056 222.942 60.008C223.806 57.944 225.07 56.32 226.734 55.136C228.398 53.952 230.446 53.36 232.878 53.36C235.246 53.36 237.278 53.96 238.974 55.16C240.67 56.36 241.966 57.992 242.862 60.056C243.774 62.12 244.23 64.44 244.23 67.016C244.23 69.608 243.774 71.936 242.862 74C241.95 76.064 240.638 77.704 238.926 78.92C237.214 80.12 235.15 80.72 232.734 80.72ZM221.07 80V45.44H224.622V60.488H224.238V80H221.07ZM232.374 77.432C234.182 77.432 235.686 76.976 236.886 76.064C238.086 75.152 238.982 73.912 239.574 72.344C240.182 70.76 240.486 68.984 240.486 67.016C240.486 65.064 240.19 63.304 239.598 61.736C239.006 60.168 238.102 58.928 236.886 58.016C235.686 57.104 234.158 56.648 232.302 56.648C230.494 56.648 228.99 57.088 227.79 57.968C226.606 58.848 225.718 60.072 225.126 61.64C224.534 63.192 224.238 64.984 224.238 67.016C224.238 69.016 224.534 70.808 225.126 72.392C225.718 73.96 226.614 75.192 227.814 76.088C229.014 76.984 230.534 77.432 232.374 77.432ZM251.931 91.52L256.947 77.912L257.019 81.944L245.667 54.08H249.411L258.723 77.384H257.187L265.779 54.08H269.379L255.459 91.52H251.931ZM289.581 80C288.125 80.304 286.685 80.424 285.261 80.36C283.853 80.296 282.589 79.992 281.469 79.448C280.365 78.904 279.525 78.056 278.949 76.904C278.485 75.944 278.229 74.976 278.181 74C278.149 73.008 278.133 71.88 278.133 70.616V46.88H281.637V70.472C281.637 71.56 281.645 72.472 281.661 73.208C281.693 73.928 281.861 74.568 282.165 75.128C282.741 76.2 283.653 76.84 284.901 77.048C286.165 77.256 287.725 77.208 289.581 76.904V80ZM272.589 57.104V54.08H289.581V57.104H272.589ZM304.719 80.72C302.191 80.72 299.999 80.16 298.143 79.04C296.303 77.92 294.871 76.344 293.847 74.312C292.823 72.28 292.311 69.896 292.311 67.16C292.311 64.328 292.815 61.88 293.823 59.816C294.831 57.752 296.247 56.16 298.071 55.04C299.911 53.92 302.079 53.36 304.575 53.36C307.135 53.36 309.319 53.952 311.127 55.136C312.935 56.304 314.303 57.984 315.231 60.176C316.159 62.368 316.583 64.984 316.503 68.024H312.903V66.776C312.839 63.416 312.111 60.88 310.719 59.168C309.343 57.456 307.327 56.6 304.671 56.6C301.887 56.6 299.751 57.504 298.263 59.312C296.791 61.12 296.055 63.696 296.055 67.04C296.055 70.304 296.791 72.84 298.263 74.648C299.751 76.44 301.855 77.336 304.575 77.336C306.431 77.336 308.047 76.912 309.423 76.064C310.815 75.2 311.911 73.96 312.711 72.344L315.999 73.616C314.975 75.872 313.463 77.624 311.463 78.872C309.479 80.104 307.231 80.72 304.719 80.72ZM294.807 68.024V65.072H314.607V68.024H294.807Z" fill="url(#paint2_linear_968_718)"/>
<path d="M137.24 121.48C135.629 121.48 134.179 121.213 132.888 120.68C131.608 120.136 130.547 119.368 129.704 118.376C128.872 117.384 128.328 116.205 128.072 114.84L130.472 114.44C130.856 115.933 131.667 117.107 132.904 117.96C134.141 118.803 135.619 119.224 137.336 119.224C138.467 119.224 139.48 119.048 140.376 118.696C141.272 118.333 141.976 117.821 142.488 117.16C143 116.499 143.256 115.715 143.256 114.808C143.256 114.211 143.149 113.704 142.936 113.288C142.723 112.861 142.44 112.509 142.088 112.232C141.736 111.955 141.352 111.725 140.936 111.544C140.52 111.352 140.115 111.197 139.72 111.08L133.88 109.336C133.176 109.133 132.525 108.877 131.928 108.568C131.331 108.248 130.808 107.869 130.36 107.432C129.923 106.984 129.581 106.461 129.336 105.864C129.091 105.267 128.968 104.584 128.968 103.816C128.968 102.515 129.309 101.389 129.992 100.44C130.675 99.4907 131.608 98.76 132.792 98.248C133.976 97.736 135.325 97.4853 136.84 97.496C138.376 97.496 139.747 97.768 140.952 98.312C142.168 98.856 143.171 99.6347 143.96 100.648C144.749 101.651 145.272 102.84 145.528 104.216L143.064 104.664C142.904 103.661 142.536 102.792 141.96 102.056C141.384 101.32 140.648 100.755 139.752 100.36C138.867 99.9547 137.891 99.7467 136.824 99.736C135.789 99.736 134.867 99.912 134.056 100.264C133.256 100.605 132.621 101.075 132.152 101.672C131.683 102.269 131.448 102.952 131.448 103.72C131.448 104.499 131.661 105.123 132.088 105.592C132.525 106.061 133.059 106.429 133.688 106.696C134.328 106.963 134.947 107.181 135.544 107.352L140.056 108.68C140.525 108.808 141.075 108.995 141.704 109.24C142.344 109.475 142.963 109.816 143.56 110.264C144.168 110.701 144.669 111.277 145.064 111.992C145.459 112.707 145.656 113.613 145.656 114.712C145.656 115.779 145.443 116.733 145.016 117.576C144.6 118.419 144.008 119.128 143.24 119.704C142.483 120.28 141.592 120.717 140.568 121.016C139.555 121.325 138.445 121.48 137.24 121.48ZM156.175 121.48C154.457 121.48 152.991 121.091 151.775 120.312C150.559 119.533 149.625 118.456 148.975 117.08C148.324 115.704 147.999 114.125 147.999 112.344C147.999 110.531 148.329 108.941 148.991 107.576C149.652 106.211 150.591 105.149 151.807 104.392C153.033 103.624 154.489 103.24 156.175 103.24C157.903 103.24 159.375 103.629 160.591 104.408C161.817 105.176 162.751 106.248 163.391 107.624C164.041 108.989 164.367 110.563 164.367 112.344C164.367 114.157 164.041 115.752 163.391 117.128C162.74 118.493 161.801 119.56 160.575 120.328C159.348 121.096 157.881 121.48 156.175 121.48ZM156.175 119.224C158.095 119.224 159.524 118.589 160.463 117.32C161.401 116.04 161.871 114.381 161.871 112.344C161.871 110.253 161.396 108.589 160.447 107.352C159.508 106.115 158.084 105.496 156.175 105.496C154.884 105.496 153.817 105.789 152.975 106.376C152.143 106.952 151.519 107.757 151.103 108.792C150.697 109.816 150.495 111 150.495 112.344C150.495 114.424 150.975 116.093 151.935 117.352C152.895 118.6 154.308 119.224 156.175 119.224ZM168.216 121V97.48H170.568V121H168.216ZM181.973 121.432C180.938 121.432 180.032 121.272 179.253 120.952C178.485 120.632 177.829 120.2 177.285 119.656C176.752 119.112 176.32 118.493 175.989 117.8C175.658 117.096 175.418 116.355 175.269 115.576C175.12 114.787 175.045 114.003 175.045 113.224V103.72H177.413V112.536C177.413 113.485 177.504 114.365 177.685 115.176C177.866 115.987 178.154 116.696 178.549 117.304C178.954 117.901 179.472 118.365 180.101 118.696C180.741 119.027 181.514 119.192 182.421 119.192C183.253 119.192 183.984 119.048 184.613 118.76C185.253 118.472 185.786 118.061 186.213 117.528C186.65 116.984 186.981 116.328 187.205 115.56C187.429 114.781 187.541 113.907 187.541 112.936L189.205 113.304C189.205 115.075 188.896 116.563 188.277 117.768C187.658 118.973 186.805 119.885 185.717 120.504C184.629 121.123 183.381 121.432 181.973 121.432ZM187.781 121V116.744H187.541V103.72H189.893V121H187.781ZM203.773 121C202.802 121.203 201.842 121.283 200.893 121.24C199.954 121.197 199.112 120.995 198.365 120.632C197.629 120.269 197.069 119.704 196.685 118.936C196.376 118.296 196.205 117.651 196.173 117C196.152 116.339 196.141 115.587 196.141 114.744V98.92H198.477V114.648C198.477 115.373 198.482 115.981 198.493 116.472C198.514 116.952 198.626 117.379 198.829 117.752C199.213 118.467 199.821 118.893 200.653 119.032C201.496 119.171 202.536 119.139 203.773 118.936V121ZM192.445 105.736V103.72H203.773V105.736H192.445ZM207.498 100.44V97.8H209.85V100.44H207.498ZM207.498 121V103.72H209.85V121H207.498ZM221.862 121.48C220.145 121.48 218.678 121.091 217.462 120.312C216.246 119.533 215.313 118.456 214.662 117.08C214.012 115.704 213.686 114.125 213.686 112.344C213.686 110.531 214.017 108.941 214.678 107.576C215.34 106.211 216.278 105.149 217.494 104.392C218.721 103.624 220.177 103.24 221.862 103.24C223.59 103.24 225.062 103.629 226.278 104.408C227.505 105.176 228.438 106.248 229.078 107.624C229.729 108.989 230.054 110.563 230.054 112.344C230.054 114.157 229.729 115.752 229.078 117.128C228.428 118.493 227.489 119.56 226.262 120.328C225.036 121.096 223.569 121.48 221.862 121.48ZM221.862 119.224C223.782 119.224 225.212 118.589 226.15 117.32C227.089 116.04 227.558 114.381 227.558 112.344C227.558 110.253 227.084 108.589 226.134 107.352C225.196 106.115 223.772 105.496 221.862 105.496C220.572 105.496 219.505 105.789 218.662 106.376C217.83 106.952 217.206 107.757 216.79 108.792C216.385 109.816 216.182 111 216.182 112.344C216.182 114.424 216.662 116.093 217.622 117.352C218.582 118.6 219.996 119.224 221.862 119.224ZM246.064 121V112.184C246.064 111.224 245.973 110.344 245.792 109.544C245.61 108.733 245.317 108.029 244.912 107.432C244.517 106.824 244 106.355 243.36 106.024C242.73 105.693 241.962 105.528 241.056 105.528C240.224 105.528 239.488 105.672 238.848 105.96C238.218 106.248 237.685 106.664 237.248 107.208C236.821 107.741 236.496 108.392 236.272 109.16C236.048 109.928 235.936 110.803 235.936 111.784L234.272 111.416C234.272 109.645 234.581 108.157 235.2 106.952C235.818 105.747 236.672 104.835 237.76 104.216C238.848 103.597 240.096 103.288 241.504 103.288C242.538 103.288 243.44 103.448 244.208 103.768C244.986 104.088 245.642 104.52 246.176 105.064C246.72 105.608 247.157 106.232 247.488 106.936C247.818 107.629 248.058 108.371 248.208 109.16C248.357 109.939 248.432 110.717 248.432 111.496V121H246.064ZM233.568 121V103.72H235.696V107.976H235.936V121H233.568ZM259.032 121.464C257.005 121.464 255.336 121.027 254.024 120.152C252.722 119.277 251.922 118.061 251.624 116.504L254.024 116.104C254.28 117.085 254.861 117.869 255.768 118.456C256.685 119.032 257.816 119.32 259.16 119.32C260.472 119.32 261.506 119.048 262.264 118.504C263.021 117.949 263.4 117.197 263.4 116.248C263.4 115.715 263.277 115.283 263.032 114.952C262.797 114.611 262.312 114.296 261.576 114.008C260.84 113.72 259.741 113.379 258.28 112.984C256.712 112.557 255.485 112.131 254.6 111.704C253.714 111.277 253.085 110.787 252.712 110.232C252.338 109.667 252.152 108.979 252.152 108.168C252.152 107.187 252.429 106.328 252.984 105.592C253.538 104.845 254.306 104.269 255.288 103.864C256.269 103.448 257.41 103.24 258.712 103.24C260.013 103.24 261.176 103.453 262.2 103.88C263.234 104.296 264.066 104.883 264.696 105.64C265.325 106.397 265.698 107.277 265.816 108.28L263.416 108.712C263.256 107.699 262.749 106.899 261.896 106.312C261.053 105.715 259.981 105.405 258.68 105.384C257.453 105.352 256.456 105.587 255.688 106.088C254.92 106.579 254.536 107.235 254.536 108.056C254.536 108.515 254.674 108.909 254.952 109.24C255.229 109.56 255.73 109.864 256.456 110.152C257.192 110.44 258.237 110.755 259.592 111.096C261.181 111.501 262.429 111.928 263.336 112.376C264.242 112.824 264.888 113.352 265.272 113.96C265.656 114.568 265.848 115.32 265.848 116.216C265.848 117.848 265.24 119.133 264.024 120.072C262.818 121 261.154 121.464 259.032 121.464Z" fill="url(#paint3_linear_968_718)"/>
<defs>
<linearGradient id="paint0_linear_968_718" x1="28.1621" y1="61" x2="67.7577" y2="60.5152" gradientUnits="userSpaceOnUse">
<stop stop-color="#17AF9A"/>
<stop offset="1" stop-color="#0A4940"/>
</linearGradient>
<linearGradient id="paint1_linear_968_718" x1="12" y1="54.0506" x2="90.3831" y2="73.929" gradientUnits="userSpaceOnUse">
<stop stop-color="#12AB90"/>
<stop offset="1" stop-color="#071538"/>
</linearGradient>
<linearGradient id="paint2_linear_968_718" x1="93" y1="62" x2="319" y2="62" gradientUnits="userSpaceOnUse">
<stop stop-color="#12A78E"/>
<stop offset="1" stop-color="#04113B"/>
</linearGradient>
<linearGradient id="paint3_linear_968_718" x1="127" y1="109" x2="268" y2="109" gradientUnits="userSpaceOnUse">
<stop stop-color="#12A78E"/>
<stop offset="1" stop-color="#04113B"/>
</linearGradient>
</defs>
</svg>
