<svg width="19" height="18" viewBox="0 0 19 18" fill="none" xmlns="http://www.w3.org/2000/svg">
<path d="M18.4697 8.99997C18.4697 11.1566 17.7664 13.0491 16.3597 14.6775C14.9531 16.3058 13.2064 17.2841 11.1197 17.6125V11.5325H13.1597L13.5472 8.99997H11.1197V7.34747C11.1197 6.45747 11.5889 6.01247 12.5272 6.01247H13.6172V3.86747C12.9606 3.7508 12.3156 3.69247 11.6822 3.69247C10.6756 3.69247 9.87306 3.98497 9.27473 4.56997C8.67806 5.15664 8.37973 5.98914 8.37973 7.06747V8.99997H6.16473V11.5325H8.37973V17.6125C6.29306 17.2841 4.54639 16.3058 3.13973 14.6775C1.73473 13.0491 1.03223 11.1566 1.03223 8.99997C1.03223 6.58664 1.88139 4.52997 3.57973 2.82997C5.27973 1.13164 7.33639 0.282471 9.74973 0.282471C12.1631 0.282471 14.2197 1.13164 15.9197 2.82997C17.6197 4.52997 18.4697 6.58664 18.4697 8.99997Z" fill="#598EAF"/>
</svg>
