<svg width="17" height="19" viewBox="0 0 17 19" fill="none" xmlns="http://www.w3.org/2000/svg">
<path d="M5.3225 7.09496C6.1075 6.30996 7.0625 5.91746 8.1875 5.91746C9.3125 5.91746 10.2675 6.30996 11.0525 7.09496C11.8375 7.87996 12.23 8.83496 12.23 9.95996C12.23 11.085 11.8375 12.04 11.0525 12.825C10.2675 13.61 9.3125 14.0025 8.1875 14.0025C7.0625 14.0025 6.1075 13.61 5.3225 12.825C4.5375 12.04 4.145 11.085 4.145 9.95996C4.145 8.83496 4.5375 7.87996 5.3225 7.09496ZM6.325 11.8225C6.84 12.3391 7.46083 12.5975 8.1875 12.5975C8.91417 12.5975 9.535 12.3391 10.05 11.8225C10.5667 11.3075 10.825 10.6866 10.825 9.95996C10.825 9.23329 10.5667 8.61246 10.05 8.09746C9.535 7.58079 8.91417 7.32246 8.1875 7.32246C7.46083 7.32246 6.84 7.58079 6.325 8.09746C5.80833 8.61246 5.55 9.23329 5.55 9.95996C5.55 10.6866 5.80833 11.3075 6.325 11.8225ZM13.0575 5.08996C13.2325 5.26663 13.32 5.48413 13.32 5.74246C13.32 5.99913 13.2325 6.22163 13.0575 6.40996C12.8808 6.59663 12.6642 6.68996 12.4075 6.68996C12.1492 6.68996 11.9258 6.59663 11.7375 6.40996C11.5508 6.22163 11.4575 5.99913 11.4575 5.74246C11.4575 5.48413 11.5508 5.26663 11.7375 5.08996C11.9258 4.91496 12.1492 4.82746 12.4075 4.82746C12.6642 4.82746 12.8808 4.91496 13.0575 5.08996ZM16.0275 6.72496C16.0508 7.35829 16.0625 8.43663 16.0625 9.95996C16.0625 11.4833 16.0508 12.5616 16.0275 13.195C15.9575 14.625 15.53 15.7325 14.745 16.5175C13.96 17.3025 12.8525 17.7183 11.4225 17.765C10.7892 17.8116 9.71083 17.835 8.1875 17.835C6.66417 17.835 5.58583 17.8116 4.9525 17.765C3.5225 17.695 2.415 17.2733 1.63 16.5C0.845 15.7266 0.429167 14.625 0.3825 13.195C0.335833 12.5616 0.3125 11.4833 0.3125 9.95996C0.3125 8.43663 0.335833 7.34663 0.3825 6.68996C0.4525 5.28329 0.874167 4.19329 1.6475 3.41996C2.42083 2.62329 3.5225 2.18996 4.9525 2.11996C5.58583 2.09663 6.66417 2.08496 8.1875 2.08496C9.71083 2.08496 10.7892 2.09663 11.4225 2.11996C12.8525 2.18996 13.96 2.61746 14.745 3.40246C15.53 4.18746 15.9575 5.29496 16.0275 6.72496ZM14.34 14.6C14.41 14.4133 14.4683 14.1733 14.515 13.88C14.5617 13.5866 14.5967 13.235 14.62 12.825C14.645 12.415 14.6575 12.0808 14.6575 11.8225C14.6575 11.5658 14.6575 11.2025 14.6575 10.7325C14.6575 10.2641 14.6575 10.0008 14.6575 9.94246C14.6575 9.88413 14.6575 9.62663 14.6575 9.16996C14.6575 8.71163 14.6575 8.35413 14.6575 8.09746C14.6575 7.83913 14.645 7.50496 14.62 7.09496C14.5967 6.68496 14.5617 6.33329 14.515 6.03996C14.4683 5.74663 14.41 5.50663 14.34 5.31996C14.0583 4.59329 13.5542 4.08913 12.8275 3.80746C12.6408 3.73746 12.4008 3.67913 12.1075 3.63246C11.8142 3.58579 11.4625 3.55079 11.0525 3.52746C10.6425 3.50413 10.3142 3.49246 10.0675 3.49246C9.8225 3.49246 9.45917 3.49246 8.9775 3.49246C8.4975 3.49246 8.23417 3.49246 8.1875 3.49246C8.14083 3.49246 7.88333 3.49246 7.415 3.49246C6.945 3.49246 6.58167 3.49246 6.325 3.49246C6.06667 3.49246 5.7325 3.50413 5.3225 3.52746C4.9125 3.55079 4.56083 3.58579 4.2675 3.63246C3.97417 3.67913 3.73417 3.73746 3.5475 3.80746C2.82083 4.08913 2.31667 4.59329 2.035 5.31996C1.965 5.50663 1.90667 5.74663 1.86 6.03996C1.81333 6.33329 1.77833 6.68496 1.755 7.09496C1.73167 7.50496 1.72 7.83329 1.72 8.07996C1.72 8.32496 1.72 8.68829 1.72 9.16996C1.72 9.64996 1.72 9.91329 1.72 9.95996C1.72 10.0066 1.72 10.2641 1.72 10.7325C1.72 11.2025 1.72 11.5658 1.72 11.8225C1.72 12.0808 1.73167 12.415 1.755 12.825C1.77833 13.235 1.81333 13.5866 1.86 13.88C1.90667 14.1733 1.965 14.4133 2.035 14.6C2.34 15.3266 2.84417 15.8308 3.5475 16.1125C3.73417 16.1825 3.97417 16.2408 4.2675 16.2875C4.56083 16.3341 4.9125 16.3691 5.3225 16.3925C5.7325 16.4175 6.06083 16.43 6.3075 16.43C6.5525 16.43 6.91583 16.43 7.3975 16.43C7.8775 16.43 8.14083 16.43 8.1875 16.43C8.2575 16.43 8.52083 16.43 8.9775 16.43C9.43583 16.43 9.79333 16.43 10.05 16.43C10.3083 16.43 10.6425 16.4175 11.0525 16.3925C11.4625 16.3691 11.8142 16.3341 12.1075 16.2875C12.4008 16.2408 12.6408 16.1825 12.8275 16.1125C13.5542 15.8075 14.0583 15.3033 14.34 14.6Z" fill="#598EAF"/>
</svg>
