<svg width="17" height="19" viewBox="0 0 17 19" fill="none" xmlns="http://www.w3.org/2000/svg">
<path d="M1.75 2.08496H15.25C15.555 2.08496 15.8183 2.19663 16.04 2.41996C16.2633 2.64163 16.375 2.90496 16.375 3.20996V16.71C16.375 17.015 16.2633 17.2783 16.04 17.5C15.8183 17.7233 15.555 17.835 15.25 17.835H1.75C1.445 17.835 1.18167 17.7233 0.96 17.5C0.736667 17.2783 0.625 17.015 0.625 16.71V3.20996C0.625 2.90496 0.736667 2.64163 0.96 2.41996C1.18167 2.19663 1.445 2.08496 1.75 2.08496ZM3.05 15.585H5.37H5.4075V8.06246H3.05V15.585ZM3.2625 6.63746C3.51917 6.90746 3.835 7.04246 4.21 7.04246C4.585 7.04246 4.9075 6.90746 5.1775 6.63746C5.4475 6.36746 5.5825 6.05079 5.5825 5.68746C5.5825 5.32413 5.4475 5.00829 5.1775 4.73996C4.9075 4.46996 4.585 4.33496 4.21 4.33496C3.835 4.33496 3.51917 4.46996 3.2625 4.73996C3.00417 5.00829 2.875 5.32413 2.875 5.68746C2.875 6.05079 3.00417 6.36746 3.2625 6.63746ZM11.805 15.585H14.125V11.4725C14.125 10.3008 13.9317 9.40996 13.545 8.79996C13.1583 8.18996 12.4258 7.88496 11.3475 7.88496C10.8092 7.88496 10.3467 8.00246 9.96 8.23746C9.57333 8.47246 9.2975 8.75329 9.1325 9.07996H9.0975V8.06246H6.8475V15.585H9.2025V11.8575C9.2025 11.2725 9.29667 10.8041 9.485 10.4525C9.67167 10.1008 10.035 9.92496 10.575 9.92496C10.855 9.92496 11.0892 9.98329 11.2775 10.1C11.4642 10.2183 11.5875 10.3941 11.6475 10.6275C11.7058 10.8625 11.7467 11.0675 11.77 11.2425C11.7933 11.4191 11.805 11.6483 11.805 11.93V15.585Z" fill="#598EAF"/>
</svg>
