<svg width="182" height="38" viewBox="0 0 182 38" fill="none" xmlns="http://www.w3.org/2000/svg">
<path d="M26.7573 26H24.3892V8.22656H26.7573V26ZM34.1914 18.1387H26.2446V16.2344H34.1914V18.1387ZM35.3999 10.1431H26.2446V8.22656H35.3999V10.1431ZM36.999 19.2617C36.999 17.984 37.2432 16.8407 37.7314 15.8315C38.2197 14.8224 38.9115 14.0249 39.8066 13.439C40.7018 12.8449 41.7638 12.5479 42.9927 12.5479C44.2378 12.5479 45.312 12.8449 46.2153 13.439C47.1187 14.0249 47.8104 14.8224 48.2905 15.8315C48.7788 16.8407 49.0229 17.984 49.0229 19.2617V19.5425C49.0229 20.812 48.7788 21.9554 48.2905 22.9727C47.8104 23.9818 47.1187 24.7793 46.2153 25.3652C45.3201 25.9512 44.2541 26.2441 43.0171 26.2441C41.7801 26.2441 40.71 25.9512 39.8066 25.3652C38.9115 24.7793 38.2197 23.9818 37.7314 22.9727C37.2432 21.9554 36.999 20.812 36.999 19.5425V19.2617ZM39.2817 19.5425C39.2817 20.4132 39.4201 21.2189 39.6968 21.9595C39.9735 22.7 40.3844 23.2941 40.9297 23.7417C41.4831 24.1893 42.1789 24.4131 43.0171 24.4131C43.8472 24.4131 44.5348 24.1893 45.0801 23.7417C45.6335 23.2941 46.0485 22.7 46.3252 21.9595C46.6019 21.2189 46.7402 20.4132 46.7402 19.5425V19.2617C46.7402 18.391 46.6019 17.5853 46.3252 16.8447C46.0485 16.1042 45.6335 15.5101 45.0801 15.0625C44.5267 14.6068 43.8309 14.3789 42.9927 14.3789C42.1707 14.3789 41.4831 14.6068 40.9297 15.0625C40.3763 15.5101 39.9613 16.1042 39.6846 16.8447C39.416 17.5853 39.2817 18.391 39.2817 19.2617V19.5425ZM54.1499 26H51.8672V12.792H54.0889L54.1499 14.8672V26ZM58.2637 14.8062C58.0684 14.7655 57.8853 14.741 57.7144 14.7329C57.5516 14.7166 57.3644 14.7085 57.1528 14.7085C56.4611 14.7085 55.8752 14.8509 55.395 15.1357C54.923 15.4206 54.5568 15.8153 54.2964 16.3198C54.036 16.8162 53.8732 17.3859 53.8081 18.0288L53.1611 18.395C53.1611 17.3289 53.3035 16.3564 53.5884 15.4775C53.8732 14.5905 54.3167 13.8825 54.9189 13.3535C55.5293 12.8164 56.3105 12.5479 57.2627 12.5479C57.4173 12.5479 57.6004 12.5682 57.812 12.6089C58.0317 12.6414 58.1823 12.6781 58.2637 12.7188V14.8062ZM65.3682 31.2124C64.9124 31.2124 64.3753 31.1392 63.7568 30.9927C63.1465 30.8543 62.5443 30.6143 61.9502 30.2725C61.3643 29.9388 60.8719 29.4871 60.4731 28.9175L61.6572 27.5869C62.2106 28.2542 62.7884 28.7181 63.3906 28.9785C64.001 29.2471 64.6032 29.3813 65.1973 29.3813C66.2633 29.3813 67.1097 29.0762 67.7363 28.4658C68.3711 27.8636 68.6885 26.9847 68.6885 25.8291V15.6973L68.896 12.792H70.9712V25.7192C70.9712 26.883 70.7311 27.8758 70.251 28.6978C69.779 29.5197 69.1198 30.1423 68.2734 30.5654C67.4352 30.9967 66.4668 31.2124 65.3682 31.2124ZM65.002 26.2441C63.944 26.2441 63.0244 25.9552 62.2432 25.3774C61.4701 24.7915 60.8678 23.994 60.4365 22.9849C60.0133 21.9757 59.8018 20.8283 59.8018 19.5425V19.2861C59.8018 17.9434 60.0133 16.7674 60.4365 15.7583C60.8597 14.741 61.4619 13.9517 62.2432 13.3901C63.0244 12.8286 63.9521 12.5479 65.0264 12.5479C65.8564 12.5479 66.5807 12.6943 67.1992 12.9873C67.8258 13.2721 68.3548 13.6872 68.7861 14.2324C69.2256 14.7777 69.5715 15.4368 69.8237 16.21C70.0841 16.9831 70.2632 17.8538 70.3608 18.8223V20.0063C70.2388 21.284 69.9661 22.3908 69.543 23.3267C69.1279 24.2544 68.5461 24.9746 67.7974 25.4873C67.0487 25.9919 66.1169 26.2441 65.002 26.2441ZM65.5635 24.3398C66.3122 24.3398 66.9266 24.1812 67.4067 23.8638C67.8869 23.5464 68.2734 23.1273 68.5664 22.6064C68.8594 22.0856 69.0872 21.52 69.25 20.9097V17.9434C69.1523 17.4958 69.014 17.0645 68.835 16.6494C68.6559 16.2262 68.4199 15.8519 68.127 15.5264C67.834 15.1927 67.4759 14.9282 67.0527 14.7329C66.6377 14.5376 66.1494 14.4399 65.5879 14.4399C64.766 14.4399 64.0946 14.6597 63.5737 15.0991C63.061 15.5386 62.6826 16.1286 62.4385 16.8691C62.2025 17.6016 62.0845 18.4072 62.0845 19.2861V19.5425C62.0845 20.4214 62.2025 21.223 62.4385 21.9473C62.6826 22.6715 63.061 23.2534 63.5737 23.6929C64.0864 24.1242 64.7497 24.3398 65.5635 24.3398ZM79.8701 26.2441C78.6413 26.2441 77.5711 25.9715 76.6597 25.4263C75.7563 24.8729 75.0524 24.116 74.5479 23.1558C74.0514 22.1955 73.8032 21.0968 73.8032 19.8599V19.335C73.8032 17.9027 74.0758 16.682 74.6211 15.6729C75.1745 14.6556 75.8906 13.8825 76.7695 13.3535C77.6566 12.8164 78.5924 12.5479 79.5771 12.5479C80.8467 12.5479 81.8802 12.8327 82.6777 13.4023C83.4834 13.9639 84.0734 14.7329 84.4478 15.7095C84.8302 16.6779 85.0215 17.7765 85.0215 19.0054V20.0186H75.1582V18.1875H82.7388V18.0166C82.7062 17.4307 82.5882 16.861 82.3848 16.3076C82.1813 15.7461 81.8558 15.2863 81.4082 14.9282C80.9606 14.562 80.3503 14.3789 79.5771 14.3789C78.8936 14.3789 78.2873 14.5742 77.7583 14.9648C77.2375 15.3473 76.8265 15.9089 76.5254 16.6494C76.2324 17.3818 76.0859 18.277 76.0859 19.335V19.8599C76.0859 20.6981 76.2406 21.4631 76.5498 22.1548C76.859 22.8384 77.3066 23.3877 77.8926 23.8027C78.4785 24.2096 79.1784 24.4131 79.9922 24.4131C80.7897 24.4131 81.4652 24.2503 82.0186 23.9248C82.5719 23.5993 83.0562 23.1639 83.4712 22.6187L84.8506 23.6929C84.4274 24.3439 83.8171 24.9339 83.0195 25.4629C82.2301 25.9837 81.1803 26.2441 79.8701 26.2441ZM93.7251 26.2441C92.6021 26.2441 91.6662 25.9919 90.9175 25.4873C90.1688 24.9746 89.5869 24.2544 89.1719 23.3267C88.7568 22.3908 88.4842 21.284 88.354 20.0063V18.8223C88.4842 17.5283 88.7568 16.4134 89.1719 15.4775C89.5869 14.5417 90.1647 13.8215 90.9053 13.3169C91.654 12.8042 92.5858 12.5479 93.7007 12.5479C94.8075 12.5479 95.7433 12.8286 96.5083 13.3901C97.2733 13.9517 97.8551 14.741 98.2539 15.7583C98.6527 16.7674 98.8521 17.9434 98.8521 19.2861V19.5425C98.8521 20.8283 98.6527 21.9757 98.2539 22.9849C97.8551 23.994 97.2733 24.7915 96.5083 25.3774C95.7433 25.9552 94.8156 26.2441 93.7251 26.2441ZM87.6582 26V7.25H89.9409V23.4365L89.7456 26H87.6582ZM93.1514 24.3398C93.9652 24.3398 94.6203 24.1242 95.1167 23.6929C95.6213 23.2534 95.9875 22.6715 96.2153 21.9473C96.4513 21.223 96.5693 20.4214 96.5693 19.5425V19.2861C96.5693 18.4072 96.4595 17.6016 96.2397 16.8691C96.02 16.1286 95.6579 15.5386 95.1533 15.0991C94.6569 14.6597 93.9814 14.4399 93.127 14.4399C92.5654 14.4399 92.0731 14.5376 91.6499 14.7329C91.2349 14.9282 90.8809 15.1927 90.5879 15.5264C90.2949 15.8519 90.0549 16.2262 89.8677 16.6494C89.6886 17.0645 89.5544 17.4958 89.4648 17.9434V20.9097C89.5951 21.4793 89.8066 22.0286 90.0996 22.5576C90.3926 23.0785 90.7873 23.5057 91.2837 23.8394C91.7882 24.173 92.4108 24.3398 93.1514 24.3398ZM109.082 12.792H111.511L106.213 28.0386C106.091 28.3641 105.928 28.714 105.725 29.0884C105.529 29.4709 105.277 29.833 104.968 30.1748C104.667 30.5166 104.296 30.7933 103.857 31.0049C103.417 31.2246 102.897 31.3345 102.294 31.3345C102.172 31.3345 102.026 31.3223 101.855 31.2979C101.684 31.2734 101.521 31.245 101.367 31.2124C101.212 31.188 101.094 31.1636 101.013 31.1392V29.3203C101.078 29.3285 101.18 29.3407 101.318 29.3569C101.464 29.3732 101.566 29.3813 101.623 29.3813C102.388 29.3813 102.986 29.2227 103.417 28.9053C103.849 28.5879 104.199 28.0223 104.467 27.2085L105.407 24.6328L109.082 12.792ZM106.152 23.0581L106.738 25.4385L105.102 26.2563L100.256 12.792H102.746L106.152 23.0581ZM119.091 14.5132H111.938V12.792H119.091V14.5132ZM116.625 9.58154V22.7285C116.625 23.1842 116.695 23.526 116.833 23.7539C116.971 23.9818 117.15 24.1323 117.37 24.2056C117.59 24.2788 117.826 24.3154 118.078 24.3154C118.265 24.3154 118.461 24.2992 118.664 24.2666C118.876 24.234 119.03 24.2056 119.128 24.1812V26C118.949 26.057 118.717 26.1099 118.432 26.1587C118.147 26.2157 117.801 26.2441 117.395 26.2441C116.841 26.2441 116.333 26.1343 115.869 25.9146C115.405 25.6948 115.035 25.3286 114.758 24.8159C114.481 24.2951 114.343 23.5952 114.343 22.7163V9.58154H116.625ZM127.209 26.2441C125.98 26.2441 124.91 25.9715 123.999 25.4263C123.095 24.8729 122.391 24.116 121.887 23.1558C121.39 22.1955 121.142 21.0968 121.142 19.8599V19.335C121.142 17.9027 121.415 16.682 121.96 15.6729C122.513 14.6556 123.229 13.8825 124.108 13.3535C124.995 12.8164 125.931 12.5479 126.916 12.5479C128.186 12.5479 129.219 12.8327 130.017 13.4023C130.822 13.9639 131.412 14.7329 131.787 15.7095C132.169 16.6779 132.36 17.7765 132.36 19.0054V20.0186H122.497V18.1875H130.078V18.0166C130.045 17.4307 129.927 16.861 129.724 16.3076C129.52 15.7461 129.195 15.2863 128.747 14.9282C128.299 14.562 127.689 14.3789 126.916 14.3789C126.232 14.3789 125.626 14.5742 125.097 14.9648C124.576 15.3473 124.165 15.9089 123.864 16.6494C123.571 17.3818 123.425 18.277 123.425 19.335V19.8599C123.425 20.6981 123.579 21.4631 123.889 22.1548C124.198 22.8384 124.646 23.3877 125.231 23.8027C125.817 24.2096 126.517 24.4131 127.331 24.4131C128.129 24.4131 128.804 24.2503 129.357 23.9248C129.911 23.5993 130.395 23.1639 130.81 22.6187L132.189 23.6929C131.766 24.3439 131.156 24.9339 130.358 25.4629C129.569 25.9837 128.519 26.2441 127.209 26.2441Z" fill="url(#paint0_linear_766_952)"/>
<path d="M8.87592 9.93973C5.84656 6.47664 4.71313 4.27815 4.52286 0C0.460572 3.48348 -0.571696 5.80836 0.273343 10.6024C1.97322 14.2405 3.62346 15.8737 6.9066 18.4595C11.6829 22.9167 13.5359 25.6236 13.4362 31.1445C17.5494 27.1601 18.5524 24.3287 16.0649 18.7435L8.87592 9.93973Z" fill="url(#paint1_linear_766_952)"/>
<path d="M6.99486 25.7541C5.08346 23.7541 4.36832 22.4845 4.24827 20.0138C1.68513 22.0255 1.03382 23.3682 1.567 26.1367C2.63955 28.2378 3.68078 29.181 5.7523 30.6743C8.76592 33.2484 9.93513 34.8116 9.87221 38C12.4674 35.6989 13.1003 34.0638 11.5308 30.8383L6.99486 25.7541Z" fill="url(#paint2_linear_766_952)"/>
<defs>
<linearGradient id="paint0_linear_766_952" x1="22.3262" y1="9.45902" x2="139.382" y2="30.605" gradientUnits="userSpaceOnUse">
<stop stop-color="#67F1D1"/>
<stop offset="0.191" stop-color="#81C5EF"/>
<stop offset="0.481" stop-color="#4D7E9C"/>
<stop offset="0.811" stop-color="#1D3E52"/>
</linearGradient>
<linearGradient id="paint1_linear_766_952" x1="4.1862" y1="0.885567" x2="11.8665" y2="30.5102" gradientUnits="userSpaceOnUse">
<stop stop-color="#67F1D1"/>
<stop offset="0.381" stop-color="#81C5EF"/>
<stop offset="1" stop-color="#1D3E52"/>
</linearGradient>
<linearGradient id="paint2_linear_766_952" x1="3.38796" y1="20.8994" x2="9.05082" y2="37.3797" gradientUnits="userSpaceOnUse">
<stop stop-color="#67F1D1"/>
<stop offset="0.614562" stop-color="#81C5EF"/>
<stop offset="1" stop-color="#1D3E52"/>
</linearGradient>
</defs>
</svg>
