<svg width="22" height="19" viewBox="0 0 22 19" fill="none" xmlns="http://www.w3.org/2000/svg">
<path d="M20.2098 5.31996C20.3282 5.76496 20.4165 6.37413 20.4748 7.14746C20.5332 7.92079 20.574 8.58913 20.5973 9.15246V9.95996C20.5973 12.07 20.4682 13.6283 20.2098 14.635C19.9765 15.5033 19.4023 16.0658 18.4873 16.3225C18.0423 16.4408 17.199 16.5291 15.9573 16.5875C14.7157 16.6458 13.579 16.6866 12.5473 16.71H10.9998C6.99151 16.71 4.49568 16.5808 3.51234 16.3225C2.59734 16.0658 2.02318 15.5033 1.78984 14.635C1.67151 14.19 1.58318 13.575 1.52484 12.79C1.46651 12.005 1.42568 11.3433 1.40234 10.805V9.95996C1.40234 7.87329 1.53151 6.32663 1.78984 5.31996C1.90651 4.89829 2.11734 4.53496 2.42234 4.22996C2.72734 3.92496 3.09068 3.71413 3.51234 3.59746C3.95734 3.47913 4.80068 3.39079 6.04234 3.33246C7.28568 3.27413 8.42234 3.23329 9.45234 3.20996H10.9998C15.0082 3.20996 17.504 3.33913 18.4873 3.59746C18.909 3.71413 19.2723 3.92496 19.5773 4.22996C19.8823 4.53496 20.0932 4.89829 20.2098 5.31996ZM9.03234 7.11246V12.8425L14.0573 9.95996L9.03234 7.11246Z" fill="#598EAF"/>
</svg>
